<svg xmlns="http://www.w3.org/2000/svg" xmlns:xlink="http://www.w3.org/1999/xlink" style="enable-background:new 0 0 833.5 734.6" id="vz85c3e02a" x="0" y="0" version="1.1" viewBox="0 0 833.5 734.6" xml:space="preserve"><style type="text/css">.st0{fill:none}.st1{stroke-width:82}.st1,.st10,.st11,.st2,.st3,.st4,.st5,.st6,.st7,.st8,.st9{fill:none;stroke:#09f;stroke-linecap:round;stroke-opacity:.4}.st2{stroke-width:118}.st3{stroke-width:46}.st4{stroke-width:36}.st5{stroke-width:20}.st6{stroke-width:30}.st7{stroke-width:44}.st8{stroke-width:22}.st9{stroke-width:52}.st10{stroke-width:24}.st11{stroke-width:28}.st12{fill:#222}.st13{font-family:&apos;Roboto-Regular&apos;}.st14{font-size:14px}.st15{enable-background:new}.st16{fill:none;stroke:#777}.st17{fill:#09f;stroke:#09f}.st18{fill:none;stroke:#fff}.st19{fill:#09f}</style><g><g transform="translate(241.5,216.88888888888889)"><polygon points="-120.2 18 -120.2 18 -120.2 18" class="st0"/><g><path d="M-120.2,164.5C-31.9,164.5-31.9-38,56.5-38" class="st1"/><path d="M-120.2,164.5c88.4,0,88.4,202.5,176.8,202.5" class="st2"/><path d="M56.5-38c88.4,0,88.4-105,176.8-105" class="st3"/><path d="M56.5-38c88.4,0,88.4,105,176.8,105" class="st4"/><path d="M233.3-143c88.4,0,88.4-30,176.8-30" class="st5"/><path d="M233.3-143c88.4,0,88.4,30,176.8,30" class="st6"/><path d="M233.3,67C321.6,67,321.6,7,410,7" class="st5"/><path d="M233.3,67c88.4,0,88.4,0,176.8,0" class="st5"/><path d="M233.3,67c88.4,0,88.4,60,176.8,60" class="st5"/><path d="M56.5,367c88.4,0,88.4-90,176.8-90" class="st7"/><path d="M56.5,367c88.4,0,88.4,0,176.8,0" class="st8"/><path d="M56.5,367c88.4,0,88.4,90,176.8,90" class="st9"/><path d="M233.3,277c88.4,0,88.4-30,176.8-30" class="st10"/><path d="M233.3,277c88.4,0,88.4,30,176.8,30" class="st5"/><path d="M233.3,457c88.4,0,88.4-30,176.8-30" class="st10"/><path d="M233.3,457c88.4,0,88.4,30,176.8,30" class="st11"/></g><g><g transform="translate(176.75,349)"><text class="st12 st13 st14" transform="matrix(1 0 0 1 -135.2488 -45.8238)">Different Perspectives</text><g id="node_27_text" class="st15"><text class="st16 st13 st14" transform="matrix(1 0 0 1 -135.2488 -45.8238)">Different Perspectives</text></g><circle cx="-120.2" cy="18" r="59" class="st17"/><g class="st15"><text class="st18 st13 st14" transform="matrix(1 0 0 1 -131.2488 23.9586)">59</text></g></g><g transform="translate(176.75,-56)"><text class="st12 st13 st14" transform="matrix(1 0 0 1 -135.2488 -28.9767)">Social Identity</text><g id="node_9_text" class="st15"><text class="st16 st13 st14" transform="matrix(1 0 0 1 -135.2488 -28.9767)">Social Identity</text></g><circle cx="-120.2" cy="18" r="41" class="st17"/><g class="st15"><text class="st18 st13 st14" transform="matrix(1 0 0 1 -131.2488 23.9586)">41</text></g></g><g transform="translate(0,146.5)"><circle cx="-120.2" cy="18" r="95" class="st19"/></g><g transform="translate(353.5,49)"><text class="st12 st13 st14" transform="matrix(1 0 0 1 -135.2488 -3.9264)">Identity</text><g id="node_15_text" class="st15"><text class="st16 st13 st14" transform="matrix(1 0 0 1 -135.2488 -3.9264)">Identity</text></g><circle cx="-120.2" cy="18" r="18" class="st17"/><g class="st15"><text class="st18 st13 st14" transform="matrix(1 0 0 1 -131.2488 23.9586)">18</text></g></g><g transform="translate(353.5,-161)"><text class="st12 st13 st14" transform="matrix(1 0 0 1 -135.2488 -9.0126)">Social Connections</text><g id="node_7_text" class="st15"><text class="st16 st13 st14" transform="matrix(1 0 0 1 -135.2488 -9.0126)">Social Connections</text></g><circle cx="-120.2" cy="18" r="23" class="st17"/><g class="st15"><text class="st18 st13 st14" transform="matrix(1 0 0 1 -131.2488 23.9586)">23</text></g></g><g transform="translate(530.25,-131)"><text class="st12 st13 st14" transform="matrix(1 0 0 1 -135.2488 -1.2409)">Supported Friends</text><g id="node_8_text" class="st15"><text class="st16 st13 st14" transform="matrix(1 0 0 1 -135.2488 -1.2409)">Supported Friends</text></g><circle cx="-120.2" cy="18" r="15" class="st17"/><g class="st15"><text class="st18 st13 st14" transform="matrix(1 0 0 1 -131.2488 23.9586)">15</text></g></g><g transform="translate(530.25,-191)"><text class="st12 st13 st14" transform="matrix(1 0 0 1 -135.2488 2.9586)">Strengthened Social Bonds</text><g id="node_6_text" class="st15"><text class="st16 st13 st14" transform="matrix(1 0 0 1 -135.2488 2.9586)">Strengthened Social Bonds</text></g><circle cx="-120.2" cy="18" r="10" class="st17"/><g class="st15"><text class="st18 st13 st14" transform="matrix(1 0 0 1 -125.2488 23.9586)">8</text></g></g><g transform="translate(530.25,109)"><text class="st12 st13 st14" transform="matrix(1 0 0 1 -135.2488 2.9586)">Didn&apos;t Play a Role</text><g id="node_16_text" class="st15"><text class="st16 st13 st14" transform="matrix(1 0 0 1 -135.2488 2.9586)">Didn&apos;t Play a Role</text></g><circle cx="-120.2" cy="18" r="10" class="st17"/><g class="st15"><text class="st18 st13 st14" transform="matrix(1 0 0 1 -125.2488 23.9586)">2</text></g></g><g transform="translate(530.25,49)"><text class="st12 st13 st14" transform="matrix(1 0 0 1 -135.2488 2.9586)">Played a Developmental Role</text><g id="node_14_text" class="st15"><text class="st16 st13 st14" transform="matrix(1 0 0 1 -135.2488 2.9586)">Played a Developmental Role</text></g><circle cx="-120.2" cy="18" r="10" class="st17"/><g class="st15"><text class="st18 st13 st14" transform="matrix(1 0 0 1 -125.2488 23.9586)">7</text></g></g><g transform="translate(530.25,-11)"><text class="st12 st13 st14" transform="matrix(1 0 0 1 -135.2488 2.9586)">Became Part of Identity</text><g id="node_12_text" class="st15"><text class="st16 st13 st14" transform="matrix(1 0 0 1 -135.2488 2.9586)">Became Part of Identity</text></g><circle cx="-120.2" cy="18" r="10" class="st17"/><g class="st15"><text class="st18 st13 st14" transform="matrix(1 0 0 1 -125.2488 23.9586)">9</text></g></g><g transform="translate(353.5,439)"><text class="st12 st13 st14" transform="matrix(1 0 0 1 -135.2488 -12.2965)">More Open-Minded</text><g id="node_31_text" class="st15"><text class="st16 st13 st14" transform="matrix(1 0 0 1 -135.2488 -12.2965)">More Open-Minded</text></g><circle cx="-120.2" cy="18" r="26" class="st17"/><g class="st15"><text class="st18 st13 st14" transform="matrix(1 0 0 1 -131.2488 23.9586)">26</text></g></g><g transform="translate(353.5,349)"><text class="st12 st13 st14" transform="matrix(1 0 0 1 -135.2488 1.7168)">Deeper Appreciation</text><g id="node_26_text" class="st15"><text class="st16 st13 st14" transform="matrix(1 0 0 1 -135.2488 1.7168)">Deeper Appreciation</text></g><circle cx="-120.2" cy="18" r="11" class="st17"/><g class="st15"><text class="st18 st13 st14" transform="matrix(1 0 0 1 -131.2488 23.9586)">11</text></g></g><g transform="translate(353.5,259)"><text class="st12 st13 st14" transform="matrix(1 0 0 1 -214.384 -7.9491)">New Social Connections and Skills</text><g id="node_23_text" class="st15"><text class="st16 st13 st14" transform="matrix(1 0 0 1 -214.384 -7.9491)">New Social Connections and Skills</text></g><circle cx="-120.2" cy="18" r="22" class="st17"/><g class="st15"><text class="st18 st13 st14" transform="matrix(1 0 0 1 -131.2488 23.9586)">22</text></g></g><g transform="translate(530.25,289)"><text class="st12 st13 st14" transform="matrix(1 0 0 1 -135.2488 2.9586)">New Social Bonds</text><g id="node_24_text" class="st15"><text class="st16 st13 st14" transform="matrix(1 0 0 1 -135.2488 2.9586)">New Social Bonds</text></g><circle cx="-120.2" cy="18" r="10" class="st17"/><g class="st15"><text class="st18 st13 st14" transform="matrix(1 0 0 1 -131.2488 23.9586)">10</text></g></g><g transform="translate(530.25,229)"><text class="st12 st13 st14" transform="matrix(1 0 0 1 -135.2488 1.0556)">Gained Skills</text><g id="node_22_text" class="st15"><text class="st16 st13 st14" transform="matrix(1 0 0 1 -135.2488 1.0556)">Gained Skills</text></g><circle cx="-120.2" cy="18" r="12" class="st17"/><g class="st15"><text class="st18 st13 st14" transform="matrix(1 0 0 1 -131.2488 23.9586)">12</text></g></g><g transform="translate(530.25,469)"><text class="st12 st13 st14" transform="matrix(1 0 0 1 -135.2488 -0.4272)">Finding Balance in Life</text><g id="node_32_text" class="st15"><text class="st16 st13 st14" transform="matrix(1 0 0 1 -135.2488 -0.4272)">Finding Balance in Life</text></g><circle cx="-120.2" cy="18" r="14" class="st17"/><g class="st15"><text class="st18 st13 st14" transform="matrix(1 0 0 1 -131.2488 23.9586)">14</text></g></g><g transform="translate(530.25,409)"><text class="st12 st13 st14" transform="matrix(1 0 0 1 -135.2488 1.0556)">Cultural Understanding</text><g id="node_30_text" class="st15"><text class="st16 st13 st14" transform="matrix(1 0 0 1 -135.2488 1.0556)">Cultural Understanding</text></g><circle cx="-120.2" cy="18" r="12" class="st17"/><g class="st15"><text class="st18 st13 st14" transform="matrix(1 0 0 1 -131.2488 23.9586)">12</text></g></g></g></g></g></svg>