<svg xmlns="http://www.w3.org/2000/svg" xmlns:xlink="http://www.w3.org/1999/xlink" style="enable-background:new 0 0 1200 1600" id="vz972d65ca" x="0" y="0" version="1.1" viewBox="0 0 1200 1600" xml:space="preserve"><style type="text/css">.st0{fill:none}.st1{stroke-width:60}.st1,.st2,.st3,.st4,.st5,.st6,.st7,.st8{fill:none;stroke:#09f;stroke-linecap:round;stroke-opacity:.4}.st2{stroke-width:140}.st3{stroke-width:28}.st4{stroke-width:20}.st5{stroke-width:40}.st6{stroke-width:48}.st7{stroke-width:34}.st8{stroke-width:30}.st9{fill:#222}.st10{font-family:&apos;ArialMT&apos;}.st11{font-size:14px}.st12{enable-background:new}.st13{fill:none;stroke:#777}.st14{fill:#09f;stroke:#09f}.st15{fill:none;stroke:#fff}.st16{fill:#09f}</style><g><g transform="translate(238.5,243.8888888888889)"><polygon points="-58.8 101.9 -58.8 101.9 -58.8 101.9" class="st0"/><g><path d="M-58.8,579.3c98,0,98-330,196-330" class="st1"/><path d="M-58.8,579.3c98,0,98,330,196,330" class="st2"/><path d="M137.2,249.3c98,0,98-240,196-240" class="st3"/><path d="M137.2,249.3c98,0,98,30,196,30" class="st4"/><path d="M137.2,249.3c98,0,98,240,196,240" class="st4"/><path d="M333.2,9.3c98,0,98-90,196-90" class="st4"/><path d="M333.2,9.3c98,0,98,90,196,90" class="st4"/><path d="M529.2-80.7c98,0,98-30,196-30" class="st4"/><path d="M529.2-80.7c98,0,98,30,196,30" class="st4"/><path d="M529.2,99.3c98,0,98-30,196-30" class="st4"/><path d="M529.2,99.3c98,0,98,30,196,30" class="st4"/><path d="M333.2,279.3c98,0,98-60,196-60" class="st4"/><path d="M333.2,279.3c98,0,98,0,196,0" class="st4"/><path d="M333.2,279.3c98,0,98,60,196,60" class="st4"/><path d="M333.2,489.3c98,0,98-30,196-30" class="st4"/><path d="M333.2,489.3c98,0,98,30,196,30" class="st4"/><path d="M137.2,909.3c98,0,98-240,196-240" class="st5"/><path d="M137.2,909.3c98,0,98-135,196-135" class="st6"/><path d="M137.2,909.3c98,0,98-30,196-30" class="st4"/><path d="M137.2,909.3c98,0,98,240,196,240" class="st7"/><path d="M333.2,669.3c98,0,98-30,196-30" class="st4"/><path d="M333.2,669.3c98,0,98,30,196,30" class="st8"/><path d="M333.2,879.3c98,0,98-60,196-60" class="st4"/><path d="M333.2,879.3c98,0,98,0,196,0" class="st4"/><path d="M333.2,879.3c98,0,98,60,196,60" class="st4"/><path d="M333.2,1149.3c98,0,98-90,196-90" class="st4"/><path d="M333.2,1149.3c98,0,98-30,196-30" class="st4"/><path d="M333.2,1149.3c98,0,98,30,196,30" class="st4"/><path d="M333.2,1149.3c98,0,98,90,196,90" class="st4"/></g><g><g transform="translate(196,807.4000244140625)"><text class="st9 st10 st11" transform="matrix(1 0 0 1 -73.7583 28.7488)">Priorities &amp; Tradeoffs</text><g id="node_49_text" class="st12"><text class="st13 st10 st11" transform="matrix(1 0 0 1 -73.7583 28.7488)">Priorities &amp; Tradeoffs</text></g><circle cx="-58.8" cy="101.9" r="70" class="st14"/><g class="st12"><text class="st15 st10 st11" transform="matrix(1 0 0 1 -69.7583 107.9448)">70</text></g></g><g transform="translate(196,147.39999389648438)"><text class="st9 st10 st11" transform="matrix(1 0 0 1 -73.7583 67.1859)">University Context</text><g id="node_25_text" class="st12"><text class="st13 st10 st11" transform="matrix(1 0 0 1 -73.7583 67.1859)">University Context</text></g><circle cx="-58.8" cy="101.9" r="30" class="st14"/><g class="st12"><text class="st15 st10 st11" transform="matrix(1 0 0 1 -69.7583 107.9448)">30</text></g></g><g transform="translate(0,477.3999938964844)"><circle cx="-58.8" cy="101.9" r="95" class="st16"/></g><g transform="translate(392,387.3999938964844)"><text class="st9 st10 st11" transform="matrix(1 0 0 1 -73.7583 86.9448)">Publicity</text><g id="node_29_text" class="st12"><text class="st13 st10 st11" transform="matrix(1 0 0 1 -73.7583 86.9448)">Publicity</text></g><circle cx="-58.8" cy="101.9" r="10" class="st14"/><g class="st12"><text class="st15 st10 st11" transform="matrix(1 0 0 1 -63.7583 107.9448)">6</text></g></g><g transform="translate(392,177.39999389648438)"><text class="st9 st10 st11" transform="matrix(1 0 0 1 -73.7583 86.9448)">University Structure</text><g id="node_23_text" class="st12"><text class="st13 st10 st11" transform="matrix(1 0 0 1 -73.7583 86.9448)">University Structure</text></g><circle cx="-58.8" cy="101.9" r="10" class="st14"/><g class="st12"><text class="st15 st10 st11" transform="matrix(1 0 0 1 -69.7583 107.9448)">10</text></g></g><g transform="translate(392,-92.5999984741211)"><text class="st9 st10 st11" transform="matrix(1 0 0 1 -73.7583 83.559)">Social Climate</text><g id="node_11_text" class="st12"><text class="st13 st10 st11" transform="matrix(1 0 0 1 -73.7583 83.559)">Social Climate</text></g><circle cx="-58.8" cy="101.9" r="14" class="st14"/><g class="st12"><text class="st15 st10 st11" transform="matrix(1 0 0 1 -69.7583 107.9448)">14</text></g></g><g transform="translate(588,-2.5999999046325684)"><text class="st9 st10 st11" transform="matrix(1 0 0 1 -73.7583 86.9448)">Exclusiveness</text><g id="node_15_text" class="st12"><text class="st13 st10 st11" transform="matrix(1 0 0 1 -73.7583 86.9448)">Exclusiveness</text></g><circle cx="-58.8" cy="101.9" r="10" class="st14"/><g class="st12"><text class="st15 st10 st11" transform="matrix(1 0 0 1 -63.7583 107.9448)">8</text></g></g><g transform="translate(588,-182.60000610351562)"><text class="st9 st10 st11" transform="matrix(1 0 0 1 -73.7583 86.9448)">Apprehension</text><g id="node_9_text" class="st12"><text class="st13 st10 st11" transform="matrix(1 0 0 1 -73.7583 86.9448)">Apprehension</text></g><circle cx="-58.8" cy="101.9" r="10" class="st14"/><g class="st12"><text class="st15 st10 st11" transform="matrix(1 0 0 1 -63.7583 107.9448)">6</text></g></g><g transform="translate(784,-152.60000610351562)"><text class="st9 st10 st11" transform="matrix(1 0 0 1 -73.7583 86.9448)">Lack of Familiarity</text><g id="node_10_text" class="st12"><text class="st13 st10 st11" transform="matrix(1 0 0 1 -73.7583 86.9448)">Lack of Familiarity</text></g><circle cx="-58.8" cy="101.9" r="10" class="st14"/><g class="st12"><text class="st15 st10 st11" transform="matrix(1 0 0 1 -63.7583 107.9448)">3</text></g></g><g transform="translate(784,-212.60000610351562)"><text class="st9 st10 st11" transform="matrix(1 0 0 1 -73.7583 86.9448)">Low Confidence</text><g id="node_8_text" class="st12"><text class="st13 st10 st11" transform="matrix(1 0 0 1 -73.7583 86.9448)">Low Confidence</text></g><circle cx="-58.8" cy="101.9" r="10" class="st14"/><g class="st12"><text class="st15 st10 st11" transform="matrix(1 0 0 1 -63.7583 107.9448)">3</text></g></g><g transform="translate(784,27.399999618530273)"><text class="st9 st10 st11" transform="matrix(1 0 0 1 -73.7583 86.9448)">Unwelcoming Environment</text><g id="node_16_text" class="st12"><text class="st13 st10 st11" transform="matrix(1 0 0 1 -73.7583 86.9448)">Unwelcoming Environment</text></g><circle cx="-58.8" cy="101.9" r="10" class="st14"/><g class="st12"><text class="st15 st10 st11" transform="matrix(1 0 0 1 -63.7583 107.9448)">4</text></g></g><g transform="translate(784,-32.599998474121094)"><text class="st9 st10 st11" transform="matrix(1 0 0 1 -73.7583 86.9448)">Competitive Auditions</text><g id="node_14_text" class="st12"><text class="st13 st10 st11" transform="matrix(1 0 0 1 -73.7583 86.9448)">Competitive Auditions</text></g><circle cx="-58.8" cy="101.9" r="10" class="st14"/><g class="st12"><text class="st15 st10 st11" transform="matrix(1 0 0 1 -63.7583 107.9448)">4</text></g></g><g transform="translate(588,237.39999389648438)"><text class="st9 st10 st11" transform="matrix(1 0 0 1 -73.7583 86.9448)">Departmental Segregation</text><g id="node_24_text" class="st12"><text class="st13 st10 st11" transform="matrix(1 0 0 1 -73.7583 86.9448)">Departmental Segregation</text></g><circle cx="-58.8" cy="101.9" r="10" class="st14"/><g class="st12"><text class="st15 st10 st11" transform="matrix(1 0 0 1 -63.7583 107.9448)">4</text></g></g><g transform="translate(588,177.39999389648438)"><text class="st9 st10 st11" transform="matrix(1 0 0 1 -73.7583 86.9448)">University Priorities</text><g id="node_22_text" class="st12"><text class="st13 st10 st11" transform="matrix(1 0 0 1 -73.7583 86.9448)">University Priorities</text></g><circle cx="-58.8" cy="101.9" r="10" class="st14"/><g class="st12"><text class="st15 st10 st11" transform="matrix(1 0 0 1 -63.7583 107.9448)">3</text></g></g><g transform="translate(588,117.4000015258789)"><text class="st9 st10 st11" transform="matrix(1 0 0 1 -73.7583 86.9448)">Academic Program Requireme…</text><g id="node_20_text" class="st12"><text class="st13 st10 st11" transform="matrix(1 0 0 1 -73.7583 86.9448)">Academic Program Requireme…</text></g><circle cx="-58.8" cy="101.9" r="10" class="st14"/><g class="st12"><text class="st15 st10 st11" transform="matrix(1 0 0 1 -63.7583 107.9448)">3</text></g></g><g transform="translate(588,417.3999938964844)"><text class="st9 st10 st11" transform="matrix(1 0 0 1 -73.7583 86.9448)">Accessibility</text><g id="node_30_text" class="st12"><text class="st13 st10 st11" transform="matrix(1 0 0 1 -73.7583 86.9448)">Accessibility</text></g><circle cx="-58.8" cy="101.9" r="10" class="st14"/><g class="st12"><text class="st15 st10 st11" transform="matrix(1 0 0 1 -63.7583 107.9448)">3</text></g></g><g transform="translate(588,357.3999938964844)"><text class="st9 st10 st11" transform="matrix(1 0 0 1 -73.7583 86.9448)">Awareness</text><g id="node_28_text" class="st12"><text class="st13 st10 st11" transform="matrix(1 0 0 1 -73.7583 86.9448)">Awareness</text></g><circle cx="-58.8" cy="101.9" r="10" class="st14"/><g class="st12"><text class="st15 st10 st11" transform="matrix(1 0 0 1 -63.7583 107.9448)">3</text></g></g><g transform="translate(392,1047.4000244140625)"><text class="st9 st10 st11" transform="matrix(1 0 0 1 -73.7583 80.9921)">Not Engaged</text><g id="node_57_text" class="st12"><text class="st13 st10 st11" transform="matrix(1 0 0 1 -73.7583 80.9921)">Not Engaged</text></g><circle cx="-58.8" cy="101.9" r="17" class="st14"/><g class="st12"><text class="st15 st10 st11" transform="matrix(1 0 0 1 -69.7583 107.9449)">17</text></g></g><g transform="translate(392,777.4000244140625)"><text class="st9 st10 st11" transform="matrix(1 0 0 1 -73.7583 86.9448)">Logistics</text><g id="node_47_text" class="st12"><text class="st13 st10 st11" transform="matrix(1 0 0 1 -73.7583 86.9448)">Logistics</text></g><circle cx="-58.8" cy="101.9" r="10" class="st14"/><g class="st12"><text class="st15 st10 st11" transform="matrix(1 0 0 1 -63.7583 107.9448)">9</text></g></g><g transform="translate(392,672.4000244140625)"><text class="st9 st10 st11" transform="matrix(1 0 0 1 -73.7583 73.8928)">Time</text><g id="node_40_text" class="st12"><text class="st13 st10 st11" transform="matrix(1 0 0 1 -73.7583 73.8928)">Time</text></g><circle cx="-58.8" cy="101.9" r="24" class="st14"/><g class="st12"><text class="st15 st10 st11" transform="matrix(1 0 0 1 -69.7583 107.9448)">24</text></g></g><g transform="translate(392,567.4000244140625)"><text class="st9 st10 st11" transform="matrix(1 0 0 1 -73.7583 78.1008)">Academic Priorities</text><g id="node_37_text" class="st12"><text class="st13 st10 st11" transform="matrix(1 0 0 1 -73.7583 78.1008)">Academic Priorities</text></g><circle cx="-58.8" cy="101.9" r="20" class="st14"/><g class="st12"><text class="st15 st10 st11" transform="matrix(1 0 0 1 -69.7583 107.9448)">20</text></g></g><g transform="translate(588,597.4000244140625)"><text class="st9 st10 st11" transform="matrix(1 0 0 1 -73.7583 82.7453)">Course Load</text><g id="node_38_text" class="st12"><text class="st13 st10 st11" transform="matrix(1 0 0 1 -73.7583 82.7453)">Course Load</text></g><circle cx="-58.8" cy="101.9" r="15" class="st14"/><g class="st12"><text class="st15 st10 st11" transform="matrix(1 0 0 1 -69.7583 107.9448)">15</text></g></g><g transform="translate(588,537.4000244140625)"><text class="st9 st10 st11" transform="matrix(1 0 0 1 -73.7583 86.9448)">Fit With Major and Course …</text><g id="node_36_text" class="st12"><text class="st13 st10 st11" transform="matrix(1 0 0 1 -73.7583 86.9448)">Fit With Major and Course …</text></g><circle cx="-58.8" cy="101.9" r="10" class="st14"/><g class="st12"><text class="st15 st10 st11" transform="matrix(1 0 0 1 -63.7583 107.9448)">5</text></g></g><g transform="translate(588,837.4000244140625)"><text class="st9 st10 st11" transform="matrix(1 0 0 1 -73.7583 86.9448)">Friend/Cost Ecosystem</text><g id="node_48_text" class="st12"><text class="st13 st10 st11" transform="matrix(1 0 0 1 -73.7583 86.9448)">Friend/Cost Ecosystem</text></g><circle cx="-58.8" cy="101.9" r="10" class="st14"/><g class="st12"><text class="st15 st10 st11" transform="matrix(1 0 0 1 -63.7583 107.9448)">2</text></g></g><g transform="translate(588,777.4000244140625)"><text class="st9 st10 st11" transform="matrix(1 0 0 1 -73.7583 86.9448)">Cost</text><g id="node_46_text" class="st12"><text class="st13 st10 st11" transform="matrix(1 0 0 1 -73.7583 86.9448)">Cost</text></g><circle cx="-58.8" cy="101.9" r="10" class="st14"/><g class="st12"><text class="st15 st10 st11" transform="matrix(1 0 0 1 -63.7583 107.9448)">4</text></g></g><g transform="translate(588,717.4000244140625)"><text class="st9 st10 st11" transform="matrix(1 0 0 1 -73.7583 86.9448)">Distance Between Campuses</text><g id="node_44_text" class="st12"><text class="st13 st10 st11" transform="matrix(1 0 0 1 -73.7583 86.9448)">Distance Between Campuses</text></g><circle cx="-58.8" cy="101.9" r="10" class="st14"/><g class="st12"><text class="st15 st10 st11" transform="matrix(1 0 0 1 -63.7583 107.9448)">3</text></g></g><g transform="translate(588,1137.4000244140625)"><text class="st9 st10 st11" transform="matrix(1 0 0 1 -73.7583 86.9449)">Ennui</text><g id="node_58_text" class="st12"><text class="st13 st10 st11" transform="matrix(1 0 0 1 -73.7583 86.9449)">Ennui</text></g><circle cx="-58.8" cy="101.9" r="10" class="st14"/><g class="st12"><text class="st15 st10 st11" transform="matrix(1 0 0 1 -63.7583 107.9449)">3</text></g></g><g transform="translate(588,1077.4000244140625)"><text class="st9 st10 st11" transform="matrix(1 0 0 1 -73.7583 86.9449)">No Barriers</text><g id="node_56_text" class="st12"><text class="st13 st10 st11" transform="matrix(1 0 0 1 -73.7583 86.9449)">No Barriers</text></g><circle cx="-58.8" cy="101.9" r="10" class="st14"/><g class="st12"><text class="st15 st10 st11" transform="matrix(1 0 0 1 -63.7583 107.9449)">5</text></g></g><g transform="translate(588,1017.4000244140625)"><text class="st9 st10 st11" transform="matrix(1 0 0 1 -73.7583 86.9449)">Lack of Personal Interest</text><g id="node_54_text" class="st12"><text class="st13 st10 st11" transform="matrix(1 0 0 1 -73.7583 86.9449)">Lack of Personal Interest</text></g><circle cx="-58.8" cy="101.9" r="10" class="st14"/><g class="st12"><text class="st15 st10 st11" transform="matrix(1 0 0 1 -63.7583 107.9449)">5</text></g></g><g transform="translate(588,957.4000244140625)"><text class="st9 st10 st11" transform="matrix(1 0 0 1 -73.7583 86.9448)">No Barriers, Except...</text><g id="node_52_text" class="st12"><text class="st13 st10 st11" transform="matrix(1 0 0 1 -73.7583 86.9448)">No Barriers, Except...</text></g><circle cx="-58.8" cy="101.9" r="10" class="st14"/><g class="st12"><text class="st15 st10 st11" transform="matrix(1 0 0 1 -63.7583 107.9448)">4</text></g></g></g></g></g></svg>