<svg xmlns="http://www.w3.org/2000/svg" xmlns:xlink="http://www.w3.org/1999/xlink" style="enable-background:new 0 0 1016 649" id="vzba071a90" x="0" y="0" version="1.1" viewBox="0 0 1016 649" xml:space="preserve"><style type="text/css">.st0{fill:none}.st1{stroke-width:152}.st1,.st2,.st3,.st4,.st5,.st6,.st7,.st8,.st9{fill:none;stroke:#09f;stroke-linecap:round;stroke-opacity:.4}.st2{stroke-width:20}.st3{stroke-width:34}.st4{stroke-width:66}.st5{stroke-width:86}.st6{stroke-width:24}.st7{stroke-width:26}.st8{stroke-width:30}.st9{stroke-width:28}.st10{fill:#222}.st11{font-family:&apos;Roboto-Regular&apos;}.st12{font-size:14px}.st13{enable-background:new}.st14{fill:none;stroke:#777}.st15{fill:#09f;stroke:#09f}.st16{fill:none;stroke:#fff}.st17{fill:#09f}</style><g><g transform="translate(241.5,234.8888888888889)"><polygon points="-107.5 38.7 -107.5 38.7 -107.5 38.7" class="st0"/><g><path d="M-107.5,195.1c70.7,0,70.7-150,141.4-150" class="st1"/><path d="M-107.5,195.1c70.7,0,70.7,0,141.4,0" class="st2"/><path d="M-107.5,195.1c70.7,0,70.7,150,141.4,150" class="st3"/><path d="M33.9,45.1c70.7,0,70.7-150,141.4-150" class="st4"/><path d="M33.9,45.1c70.7,0,70.7,150,141.4,150" class="st5"/><path d="M175.3-104.9c70.7,0,70.7-60,141.4-60" class="st6"/><path d="M175.3-104.9c70.7,0,70.7,0,141.4,0" class="st2"/><path d="M175.3-104.9c70.7,0,70.7,60,141.4,60" class="st7"/><path d="M316.7-44.9c70.7,0,70.7-30,141.4-30" class="st2"/><path d="M316.7-44.9c70.7,0,70.7,30,141.4,30" class="st2"/><path d="M175.3,195.1c70.7,0,70.7-120,141.4-120" class="st2"/><path d="M175.3,195.1c70.7,0,70.7-60,141.4-60" class="st8"/><path d="M175.3,195.1c70.7,0,70.7,30,141.4,30" class="st2"/><path d="M175.3,195.1c70.7,0,70.7,120,141.4,120" class="st9"/><path d="M316.7,135.1c70.7,0,70.7-30,141.4-30" class="st2"/><path d="M316.7,135.1c70.7,0,70.7,30,141.4,30" class="st2"/><path d="M316.7,315.1c70.7,0,70.7-30,141.4-30" class="st2"/><path d="M316.7,315.1c70.7,0,70.7,30,141.4,30" class="st2"/><path d="M33.9,345.1c70.7,0,70.7-30,141.4-30" class="st2"/><path d="M33.9,345.1c70.7,0,70.7,30,141.4,30" class="st2"/></g><g><g transform="translate(141.39999389648438,306.3999938964844)"><text class="st10 st11 st12" transform="matrix(1 0 0 1 -122.5329 17.7689)">Small Role</text><g id="node_39_text" class="st13"><text class="st14 st11 st12" transform="matrix(1 0 0 1 -122.5329 17.7689)">Small Role</text></g><circle cx="-107.5" cy="38.7" r="17" class="st15"/><g class="st13"><text class="st16 st11 st12" transform="matrix(1 0 0 1 -118.5329 44.7216)">17</text></g></g><g transform="translate(141.39999389648438,156.39999389648438)"><text class="st10 st11 st12" transform="matrix(1 0 0 1 -122.5329 23.7216)">Educational</text><g id="node_34_text" class="st13"><text class="st14 st11 st12" transform="matrix(1 0 0 1 -122.5329 23.7216)">Educational</text></g><circle cx="-107.5" cy="38.7" r="10" class="st15"/><g class="st13"><text class="st16 st11 st12" transform="matrix(1 0 0 1 -112.5329 44.7216)">6</text></g></g><g transform="translate(141.39999389648438,6.400000095367432)"><text class="st10 st11 st12" transform="matrix(1 0 0 1 -122.5329 -40.4222)">Positive</text><g id="node_15_text" class="st13"><text class="st14 st11 st12" transform="matrix(1 0 0 1 -122.5329 -40.4222)">Positive</text></g><circle cx="-107.5" cy="38.7" r="76" class="st15"/><g class="st13"><text class="st16 st11 st12" transform="matrix(1 0 0 1 -118.5329 44.7216)">76</text></g></g><g transform="translate(0,156.39999389648438)"><circle cx="-107.5" cy="38.7" r="95" class="st17"/></g><g transform="translate(282.79998779296875,156.39999389648438)"><circle cx="-107.5" cy="38.7" r="43" class="st15"/><g class="st13"><text class="st16 st11 st12" transform="matrix(1 0 0 1 -118.5329 44.7216)">43</text></g><text class="st10 st11 st12" transform="matrix(1 0 0 1 -159.3258 18.7218)">More and Better Social Connections</text><g id="node_27_text" class="st13"><text class="st14 st11 st12" transform="matrix(1 0 0 1 -159.3258 18.7218)">More and Better Social Connections</text></g></g><g transform="translate(282.79998779296875,-143.60000610351562)"><text class="st10 st11 st12" transform="matrix(1 0 0 1 -231.9328 0.5661)">Expanded Possibilities and Relaxation</text><g id="node_9_text" class="st13"><text class="st14 st11 st12" transform="matrix(1 0 0 1 -231.9328 0.5661)">Expanded Possibilities and Relaxation</text></g><circle cx="-107.5" cy="38.7" r="33" class="st15"/><g class="st13"><text class="st16 st11 st12" transform="matrix(1 0 0 1 -118.5329 44.7216)">33</text></g></g><g transform="translate(424.20001220703125,-83.5999984741211)"><text class="st10 st11 st12" transform="matrix(1 0 0 1 -180.4596 21.1026)">Exploration and Development</text><g id="node_13_text" class="st13"><text class="st14 st11 st12" transform="matrix(1 0 0 1 -180.4596 21.1026)">Exploration and Development</text></g><circle cx="-107.5" cy="38.7" r="13" class="st15"/><g class="st13"><text class="st16 st11 st12" transform="matrix(1 0 0 1 -118.5329 44.7216)">13</text></g></g><g transform="translate(424.20001220703125,-143.60000610351562)"><text class="st10 st11 st12" transform="matrix(1 0 0 1 -122.5329 23.7216)">Broadened World View</text><g id="node_8_text" class="st13"><text class="st14 st11 st12" transform="matrix(1 0 0 1 -122.5329 23.7216)">Broadened World View</text></g><circle cx="-107.5" cy="38.7" r="10" class="st15"/><g class="st13"><text class="st16 st11 st12" transform="matrix(1 0 0 1 -112.5329 44.7216)">8</text></g></g><g transform="translate(424.20001220703125,-203.60000610351562)"><text class="st10 st11 st12" transform="matrix(1 0 0 1 -122.5329 21.8185)">Break from Classes</text><g id="node_6_text" class="st13"><text class="st14 st11 st12" transform="matrix(1 0 0 1 -122.5329 21.8185)">Break from Classes</text></g><circle cx="-107.5" cy="38.7" r="12" class="st15"/><g class="st13"><text class="st16 st11 st12" transform="matrix(1 0 0 1 -118.5329 44.7216)">12</text></g></g><g transform="translate(565.5999755859375,-53.599998474121094)"><text class="st10 st11 st12" transform="matrix(1 0 0 1 -122.5329 23.7216)">Personal Enhancement Enrichment</text><g id="node_14_text" class="st13"><text class="st14 st11 st12" transform="matrix(1 0 0 1 -122.5329 23.7216)">Personal Enhancement Enrichment</text></g><circle cx="-107.5" cy="38.7" r="10" class="st15"/><g class="st13"><text class="st16 st11 st12" transform="matrix(1 0 0 1 -112.5329 44.7216)">6</text></g></g><g transform="translate(565.5999755859375,-113.5999984741211)"><text class="st10 st11 st12" transform="matrix(1 0 0 1 -122.5329 23.7216)">Encouraged Exploration</text><g id="node_12_text" class="st13"><text class="st14 st11 st12" transform="matrix(1 0 0 1 -122.5329 23.7216)">Encouraged Exploration</text></g><circle cx="-107.5" cy="38.7" r="10" class="st15"/><g class="st13"><text class="st16 st11 st12" transform="matrix(1 0 0 1 -112.5329 44.7216)">7</text></g></g><g transform="translate(424.20001220703125,276.3999938964844)"><text class="st10 st11 st12" transform="matrix(1 0 0 1 -122.5329 20.3358)">Social Connections</text><g id="node_31_text" class="st13"><text class="st14 st11 st12" transform="matrix(1 0 0 1 -122.5329 20.3358)">Social Connections</text></g><circle cx="-107.5" cy="38.7" r="14" class="st15"/><g class="st13"><text class="st16 st11 st12" transform="matrix(1 0 0 1 -118.5329 44.7216)">14</text></g></g><g transform="translate(424.20001220703125,186.39999389648438)"><text class="st10 st11 st12" transform="matrix(1 0 0 1 -122.5329 23.7216)">Greater Involvement</text><g id="node_26_text" class="st13"><text class="st14 st11 st12" transform="matrix(1 0 0 1 -122.5329 23.7216)">Greater Involvement</text></g><circle cx="-107.5" cy="38.7" r="10" class="st15"/><g class="st13"><text class="st16 st11 st12" transform="matrix(1 0 0 1 -112.5329 44.7216)">6</text></g></g><g transform="translate(424.20001220703125,96.4000015258789)"><text class="st10 st11 st12" transform="matrix(1 0 0 1 -122.5329 19.5221)">Personal Enhancement</text><g id="node_23_text" class="st13"><text class="st14 st11 st12" transform="matrix(1 0 0 1 -122.5329 19.5221)">Personal Enhancement</text></g><circle cx="-107.5" cy="38.7" r="15" class="st15"/><g class="st13"><text class="st16 st11 st12" transform="matrix(1 0 0 1 -118.5329 44.7216)">15</text></g></g><g transform="translate(424.20001220703125,36.400001525878906)"><text class="st10 st11 st12" transform="matrix(1 0 0 1 -122.5329 23.7216)">Fun Social Activities</text><g id="node_18_text" class="st13"><text class="st14 st11 st12" transform="matrix(1 0 0 1 -122.5329 23.7216)">Fun Social Activities</text></g><circle cx="-107.5" cy="38.7" r="10" class="st15"/><g class="st13"><text class="st16 st11 st12" transform="matrix(1 0 0 1 -112.5329 44.7216)">8</text></g></g><g transform="translate(565.5999755859375,126.4000015258789)"><text class="st10 st11 st12" transform="matrix(1 0 0 1 -122.5329 23.7216)">Personal Enhancement Growth and Well-Being</text><g id="node_24_text" class="st13"><text class="st14 st11 st12" transform="matrix(1 0 0 1 -122.5329 23.7216)">Personal Enhancement Growth and Well-Being</text></g><circle cx="-107.5" cy="38.7" r="10" class="st15"/><g class="st13"><text class="st16 st11 st12" transform="matrix(1 0 0 1 -112.5329 44.7216)">7</text></g></g><g transform="translate(565.5999755859375,66.4000015258789)"><text class="st10 st11 st12" transform="matrix(1 0 0 1 -122.5329 23.7216)">Entertainment</text><g id="node_22_text" class="st13"><text class="st14 st11 st12" transform="matrix(1 0 0 1 -122.5329 23.7216)">Entertainment</text></g><circle cx="-107.5" cy="38.7" r="10" class="st15"/><g class="st13"><text class="st16 st11 st12" transform="matrix(1 0 0 1 -112.5329 44.7216)">8</text></g></g><g transform="translate(565.5999755859375,306.3999938964844)"><text class="st10 st11 st12" transform="matrix(1 0 0 1 -122.5329 23.7216)">Meet New Friends</text><g id="node_32_text" class="st13"><text class="st14 st11 st12" transform="matrix(1 0 0 1 -122.5329 23.7216)">Meet New Friends</text></g><circle cx="-107.5" cy="38.7" r="10" class="st15"/><g class="st13"><text class="st16 st11 st12" transform="matrix(1 0 0 1 -112.5329 44.7216)">5</text></g></g><g transform="translate(565.5999755859375,246.39999389648438)"><text class="st10 st11 st12" transform="matrix(1 0 0 1 -122.5329 23.7216)">New People and Skills</text><g id="node_30_text" class="st13"><text class="st14 st11 st12" transform="matrix(1 0 0 1 -122.5329 23.7216)">New People and Skills</text></g><circle cx="-107.5" cy="38.7" r="10" class="st15"/><g class="st13"><text class="st16 st11 st12" transform="matrix(1 0 0 1 -112.5329 44.7216)">9</text></g></g><g transform="translate(282.79998779296875,336.3999938964844)"><text class="st10 st11 st12" transform="matrix(1 0 0 1 -122.5329 23.7216)">Small Role</text><g id="node_40_text" class="st13"><text class="st14 st11 st12" transform="matrix(1 0 0 1 -122.5329 23.7216)">Small Role</text></g><circle cx="-107.5" cy="38.7" r="10" class="st15"/><g class="st13"><text class="st16 st11 st12" transform="matrix(1 0 0 1 -112.5329 44.7216)">7</text></g></g><g transform="translate(282.79998779296875,276.3999938964844)"><text class="st10 st11 st12" transform="matrix(1 0 0 1 -184.7002 23.7219)">Unable to Participate Much</text><g id="node_38_text" class="st13"><text class="st14 st11 st12" transform="matrix(1 0 0 1 -184.7002 23.7219)">Unable to Participate Much</text></g><circle cx="-107.5" cy="38.7" r="10" class="st15"/><g class="st13"><text class="st16 st11 st12" transform="matrix(1 0 0 1 -118.5329 44.7216)">10</text></g></g></g></g></g></svg>