<svg xmlns="http://www.w3.org/2000/svg" xmlns:xlink="http://www.w3.org/1999/xlink" style="enable-background:new 0 0 1088 666" id="vz2e85a477" x="0" y="0" version="1.1" viewBox="0 0 1088 666" xml:space="preserve"><style type="text/css">.st0{fill:none}.st1{stroke-width:90}.st1,.st2,.st3,.st4,.st5,.st6,.st7{fill:none;stroke:#09f;stroke-linecap:round;stroke-opacity:.4}.st2{stroke-width:110}.st3{stroke-width:28}.st4{stroke-width:20}.st5{stroke-width:44}.st6{stroke-width:24}.st7{stroke-width:26}.st8{fill:#222}.st9{font-family:&apos;Roboto-Regular&apos;}.st10{font-size:12px}.st11{enable-background:new}.st12{fill:none;stroke:#777}.st13{fill:#09f;stroke:#09f}.st14{fill:none;stroke:#fff}.st15{fill:#09f}</style><g><g transform="translate(202.5,255.66666666666669)"><polygon points="0 0 0 0 0 0" class="st0"/><g><path d="M0,63.6c103.5,0,103.5-165,207-165" class="st1"/><path d="M0,63.6c103.5,0,103.5,165,207,165" class="st2"/><path d="M207-101.4c103.5,0,103.5-90,207-90" class="st3"/><path d="M207-101.4c103.5,0,103.5,0,207,0" class="st4"/><path d="M207-101.4c103.5,0,103.5,90,207,90" class="st5"/><path d="M414-191.4c103.5,0,103.5-30,207-30" class="st4"/><path d="M414-191.4c103.5,0,103.5,30,207,30" class="st4"/><path d="M414-11.4c103.5,0,103.5-30,207-30" class="st4"/><path d="M414-11.4c103.5,0,103.5,30,207,30" class="st3"/><path d="M207,228.6c103.5,0,103.5-120,207-120" class="st6"/><path d="M207,228.6c103.5,0,103.5-60,207-60" class="st3"/><path d="M207,228.6c103.5,0,103.5,30,207,30" class="st4"/><path d="M207,228.6c103.5,0,103.5,120,207,120" class="st5"/><path d="M414,168.6c103.5,0,103.5-30,207-30" class="st4"/><path d="M414,168.6c103.5,0,103.5,30,207,30" class="st4"/><path d="M414,348.6c103.5,0,103.5-30,207-30" class="st4"/><path d="M414,348.6c103.5,0,103.5,30,207,30" class="st7"/></g><g><g transform="translate(207,228.60000610351562)"><text class="st8 st9 st10" transform="matrix(1 0 0 1 -13 -60.3635)">Humanist Perspective</text><g id="node_29_text" class="st11"><text class="st12 st9 st10" transform="matrix(1 0 0 1 -13 -60.3635)">Humanist Perspective</text></g><circle cx="0" cy="0" r="55" class="st13"/><g class="st11"><text class="st14 st9 st10" transform="matrix(1 0 0 1 -9 6)">55</text></g></g><g transform="translate(207,-101.4000015258789)"><text class="st8 st9 st10" transform="matrix(1 0 0 1 -13 -51.0478)">Self Fulfillment</text><g id="node_11_text" class="st11"><text class="st12 st9 st10" transform="matrix(1 0 0 1 -13 -51.0478)">Self Fulfillment</text></g><circle cx="0" cy="0" r="45" class="st13"/><g class="st11"><text class="st14 st9 st10" transform="matrix(1 0 0 1 -9 6.0001)">45</text></g></g><g transform="translate(0,63.599998474121094)"><circle cx="0" cy="0" r="95" class="st15"/></g><g transform="translate(414,-11.399999618530273)"><text class="st8 st9 st10" transform="matrix(1 0 0 1 -13 -25.9077)">Intra-Personal Growth</text><g id="node_15_text" class="st11"><text class="st12 st9 st10" transform="matrix(1 0 0 1 -13 -25.9077)">Intra-Personal Growth</text></g><circle cx="0" cy="0" r="22" class="st13"/><g class="st11"><text class="st14 st9 st10" transform="matrix(1 0 0 1 -9 6)">22</text></g></g><g transform="translate(414,-101.4000015258789)"><text class="st8 st9 st10" transform="matrix(1 0 0 1 -13 -14.9999)">Personal Skills</text><g id="node_10_text" class="st11"><text class="st12 st9 st10" transform="matrix(1 0 0 1 -13 -14.9999)">Personal Skills</text></g><circle cx="0" cy="0" r="10" class="st13"/><g class="st11"><text class="st14 st9 st10" transform="matrix(1 0 0 1 -3 6.0001)">9</text></g></g><g transform="translate(414,-191.39999389648438)"><text class="st8 st9 st10" transform="matrix(1 0 0 1 -13 -18.3858)">Experiencing the New</text><g id="node_7_text" class="st11"><text class="st12 st9 st10" transform="matrix(1 0 0 1 -13 -18.3858)">Experiencing the New</text></g><circle cx="0" cy="0" r="14" class="st13"/><g class="st11"><text class="st14 st9 st10" transform="matrix(1 0 0 1 -9 6)">14</text></g></g><g transform="translate(621,-161.39999389648438)"><text class="st8 st9 st10" transform="matrix(1 0 0 1 -13 -15)">Exposure to New Experiences</text><g id="node_8_text" class="st11"><text class="st12 st9 st10" transform="matrix(1 0 0 1 -13 -15)">Exposure to New Experiences</text></g><circle cx="0" cy="0" r="10" class="st13"/><g class="st11"><text class="st14 st9 st10" transform="matrix(1 0 0 1 -3 6)">8</text></g></g><g transform="translate(621,-221.39999389648438)"><text class="st8 st9 st10" transform="matrix(1 0 0 1 -13 -15)">Connect with People in New…</text><g id="node_6_text" class="st11"><text class="st12 st9 st10" transform="matrix(1 0 0 1 -13 -15)">Connect with People in New Ways</text></g><circle cx="0" cy="0" r="10" class="st13"/><g class="st11"><text class="st14 st9 st10" transform="matrix(1 0 0 1 -3 6)">6</text></g></g><g transform="translate(621,18.600000381469727)"><text class="st8 st9 st10" transform="matrix(1 0 0 1 -13 -18.3858)">More Self-Aware</text><g id="node_16_text" class="st11"><text class="st12 st9 st10" transform="matrix(1 0 0 1 -13 -18.3858)">More Self-Aware</text></g><circle cx="0" cy="0" r="14" class="st13"/><g class="st11"><text class="st14 st9 st10" transform="matrix(1 0 0 1 -9 6)">14</text></g></g><g transform="translate(621,-41.400001525878906)"><text class="st8 st9 st10" transform="matrix(1 0 0 1 -13 -14.9999)">Self Exploration</text><g id="node_14_text" class="st11"><text class="st12 st9 st10" transform="matrix(1 0 0 1 -13 -14.9999)">Self Exploration</text></g><circle cx="0" cy="0" r="10" class="st13"/><g class="st11"><text class="st14 st9 st10" transform="matrix(1 0 0 1 -3 6)">8</text></g></g><g transform="translate(414,348.6000061035156)"><text class="st8 st9 st10" transform="matrix(1 0 0 1 -13 -25.9077)">Holistically</text><g id="node_33_text" class="st11"><text class="st12 st9 st10" transform="matrix(1 0 0 1 -13 -25.9077)">Holistically</text></g><circle cx="0" cy="0" r="22" class="st13"/><g class="st11"><text class="st14 st9 st10" transform="matrix(1 0 0 1 -9 6)">22</text></g></g><g transform="translate(414,258.6000061035156)"><text class="st8 st9 st10" transform="matrix(1 0 0 1 -13 -15)">More Open-Minded</text><g id="node_28_text" class="st11"><text class="st12 st9 st10" transform="matrix(1 0 0 1 -13 -15)">More Open-Minded</text></g><circle cx="0" cy="0" r="10" class="st13"/><g class="st11"><text class="st14 st9 st10" transform="matrix(1 0 0 1 -3 6)">7</text></g></g><g transform="translate(414,168.60000610351562)"><text class="st8 st9 st10" transform="matrix(1 0 0 1 -13 -18.3858)">Empathetic</text><g id="node_25_text" class="st11"><text class="st12 st9 st10" transform="matrix(1 0 0 1 -13 -18.3858)">Empathetic</text></g><circle cx="0" cy="0" r="14" class="st13"/><g class="st11"><text class="st14 st9 st10" transform="matrix(1 0 0 1 -9 6)">14</text></g></g><g transform="translate(414,108.5999984741211)"><text class="st8 st9 st10" transform="matrix(1 0 0 1 -13 -16.903)">Cultural Appreciation</text><g id="node_20_text" class="st11"><text class="st12 st9 st10" transform="matrix(1 0 0 1 -13 -16.903)">Cultural Appreciation</text></g><circle cx="0" cy="0" r="12" class="st13"/><g class="st11"><text class="st14 st9 st10" transform="matrix(1 0 0 1 -9 6)">12</text></g></g><g transform="translate(621,198.60000610351562)"><text class="st8 st9 st10" transform="matrix(1 0 0 1 -13 -15)">Expanded Worldview</text><g id="node_26_text" class="st11"><text class="st12 st9 st10" transform="matrix(1 0 0 1 -13 -15)">Expanded Worldview</text></g><circle cx="0" cy="0" r="10" class="st13"/><g class="st11"><text class="st14 st9 st10" transform="matrix(1 0 0 1 -3 6)">5</text></g></g><g transform="translate(621,138.60000610351562)"><text class="st8 st9 st10" transform="matrix(1 0 0 1 -13 -15)">Understanding and Acceptin…</text><g id="node_24_text" class="st11"><text class="st12 st9 st10" transform="matrix(1 0 0 1 -13 -15)">Understanding and Accepting Others</text></g><circle cx="0" cy="0" r="10" class="st13"/><g class="st11"><text class="st14 st9 st10" transform="matrix(1 0 0 1 -3 6)">9</text></g></g><g transform="translate(621,378.6000061035156)"><text class="st8 st9 st10" transform="matrix(1 0 0 1 -13 -17.619)">Creativity, Expression and…</text><g id="node_34_text" class="st11"><text class="st12 st9 st10" transform="matrix(1 0 0 1 -13 -17.619)">Creativity, Expression and Communication</text></g><circle cx="0" cy="0" r="13" class="st13"/><g class="st11"><text class="st14 st9 st10" transform="matrix(1 0 0 1 -9 6)">13</text></g></g><g transform="translate(621,318.6000061035156)"><text class="st8 st9 st10" transform="matrix(1 0 0 1 -13 -15)">Spiritually, Emotionally, …</text><g id="node_32_text" class="st11"><text class="st12 st9 st10" transform="matrix(1 0 0 1 -13 -15)">Spiritually, Emotionally, Mentally, Physically</text></g><circle cx="0" cy="0" r="10" class="st13"/><g class="st11"><text class="st14 st9 st10" transform="matrix(1 0 0 1 -3 6)">9</text></g></g></g></g></g></svg>