<svg xmlns="http://www.w3.org/2000/svg" xmlns:xlink="http://www.w3.org/1999/xlink" style="enable-background:new 0 0 1335 768" id="vz80be0965" x="0" y="0" version="1.1" viewBox="0 0 1335 768" xml:space="preserve"><style type="text/css">.st0{fill:none}.st1{stroke-width:144}.st1,.st2,.st3,.st4,.st5,.st6,.st7,.st8,.st9{fill:none;stroke:#09f;stroke-linecap:round;stroke-opacity:.4}.st2{stroke-width:20}.st3{stroke-width:36}.st4{stroke-width:56}.st5{stroke-width:88}.st6{stroke-width:42}.st7{stroke-width:28}.st8{stroke-width:44}.st9{stroke-width:22}.st10{fill:#222}.st11{font-family:&apos;Roboto-Regular&apos;}.st12{font-size:14px}.st13{enable-background:new}.st14{fill:none;stroke:#777}.st15{fill:#09f;stroke:#09f}.st16{fill:none;stroke:#fff}.st17{fill:#09f}</style><g><g transform="translate(238.5,243.8888888888889)"><polygon points="0 32 0 32 0 32" class="st0"/><g><path d="M0,194.4c81.7,0,81.7-165,163.3-165" class="st1"/><path d="M0,194.4c81.7,0,81.7,0,163.3,0" class="st2"/><path d="M0,194.4c81.7,0,81.7,165,163.3,165" class="st3"/><path d="M163.3,29.4c81.7,0,81.7-180,163.3-180" class="st4"/><path d="M163.3,29.4c81.7,0,81.7,180,163.3,180" class="st5"/><path d="M326.7-150.6c81.7,0,81.7-30,163.3-30" class="st2"/><path d="M326.7-150.6c81.7,0,81.7,30,163.3,30" class="st6"/><path d="M490-120.6c81.7,0,81.7-30,163.3-30" class="st2"/><path d="M490-120.6c81.7,0,81.7,30,163.3,30" class="st7"/><path d="M653.3-90.6c81.7,0,81.7-30,163.3-30" class="st2"/><path d="M653.3-90.6c81.7,0,81.7,30,163.3,30" class="st2"/><path d="M326.7,209.4c81.7,0,81.7-150,163.3-150" class="st8"/><path d="M326.7,209.4c81.7,0,81.7,150,163.3,150" class="st8"/><path d="M490,59.4c81.7,0,81.7-30,163.3-30" class="st2"/><path d="M490,59.4c81.7,0,81.7,30,163.3,30" class="st3"/><path d="M653.3,89.4c81.7,0,81.7-30,163.3-30" class="st2"/><path d="M653.3,89.4c81.7,0,81.7,30,163.3,30" class="st9"/><path d="M490,359.4c81.7,0,81.7-90,163.3-90" class="st9"/><path d="M490,359.4c81.7,0,81.7,90,163.3,90" class="st9"/><path d="M653.3,269.4c81.7,0,81.7-30,163.3-30" class="st2"/><path d="M653.3,269.4c81.7,0,81.7,30,163.3,30" class="st2"/><path d="M653.3,449.4c81.7,0,81.7-30,163.3-30" class="st2"/><path d="M653.3,449.4c81.7,0,81.7,30,163.3,30" class="st2"/><path d="M163.3,359.4c81.7,0,81.7-30,163.3-30" class="st2"/><path d="M163.3,359.4c81.7,0,81.7,30,163.3,30" class="st2"/></g><g><g transform="translate(163.3333282470703,327.3999938964844)"><text class="st10 st11 st12" transform="matrix(1 0 0 1 -15 10.115)">Uninvolved</text><g id="node_49_text" class="st13"><text class="st14 st11 st12" transform="matrix(1 0 0 1 -15 10.115)">Uninvolved</text></g><circle cx="0" cy="32" r="18" class="st15"/><g class="st13"><text class="st16 st11 st12" transform="matrix(1 0 0 1 -11 38)">18</text></g></g><g transform="translate(163.3333282470703,162.39999389648438)"><text class="st10 st11 st12" transform="matrix(1 0 0 1 -15 17)">Entertained</text><g id="node_44_text" class="st13"><text class="st14 st11 st12" transform="matrix(1 0 0 1 -15 17)">Entertained</text></g><circle cx="0" cy="32" r="10" class="st15"/><g class="st13"><text class="st16 st11 st12" transform="matrix(1 0 0 1 -5 38)">9</text></g></g><g transform="translate(163.3333282470703,-2.5999999046325684)"><text class="st10 st11 st12" transform="matrix(1 0 0 1 -15 -43.067)">Enlightened</text><g id="node_17_text" class="st13"><text class="st14 st11 st12" transform="matrix(1 0 0 1 -15 -43.067)">Enlightened</text></g><circle cx="0" cy="32" r="72" class="st15"/><g class="st13"><text class="st16 st11 st12" transform="matrix(1 0 0 1 -11 38)">72</text></g></g><g transform="translate(0,162.39999389648438)"><circle cx="0" cy="32" r="95" class="st17"/></g><g transform="translate(326.6666564941406,177.39999389648438)"><text class="st10 st11 st12" transform="matrix(1 0 0 1 -15 -18.0405)">Fulfilled</text><g id="node_29_text" class="st13"><text class="st14 st11 st12" transform="matrix(1 0 0 1 -15 -18.0405)">Fulfilled</text></g><circle cx="0" cy="32" r="44" class="st15"/><g class="st13"><text class="st16 st11 st12" transform="matrix(1 0 0 1 -11 38)">44</text></g></g><g transform="translate(326.6666564941406,-182.60000610351562)"><text class="st10 st11 st12" transform="matrix(1 0 0 1 -15 -0.4968)">Connected and Empowered</text><g id="node_7_text" class="st13"><text class="st14 st11 st12" transform="matrix(1 0 0 1 -15 -0.4968)">Connected and Empowered</text></g><circle cx="0" cy="32" r="28" class="st15"/><g class="st13"><text class="st16 st11 st12" transform="matrix(1 0 0 1 -11 37.9999)">28</text></g></g><g transform="translate(490,-152.60000610351562)"><text class="st10 st11 st12" transform="matrix(1 0 0 1 -15 7.1357)">Empowered</text><g id="node_11_text" class="st13"><text class="st14 st11 st12" transform="matrix(1 0 0 1 -15 7.1357)">Empowered</text></g><circle cx="0" cy="32" r="21" class="st15"/><g class="st13"><text class="st16 st11 st12" transform="matrix(1 0 0 1 -11 37.9999)">21</text></g></g><g transform="translate(490,-212.60000610351562)"><text class="st10 st11 st12" transform="matrix(1 0 0 1 -15 16.9999)">Connected to Others throug…</text><g id="node_6_text" class="st13"><text class="st14 st11 st12" transform="matrix(1 0 0 1 -15 16.9999)">Connected to Others through the Arts</text></g><circle cx="0" cy="32" r="10" class="st15"/><g class="st13"><text class="st16 st11 st12" transform="matrix(1 0 0 1 -5 37.9999)">7</text></g></g><g transform="translate(653.3333129882812,-122.5999984741211)"><text class="st10 st11 st12" transform="matrix(1 0 0 1 -15 13.6142)">Successful</text><g id="node_15_text" class="st13"><text class="st14 st11 st12" transform="matrix(1 0 0 1 -15 13.6142)">Successful</text></g><circle cx="0" cy="32" r="14" class="st15"/><g class="st13"><text class="st16 st11 st12" transform="matrix(1 0 0 1 -11 38.0001)">14</text></g></g><g transform="translate(653.3333129882812,-182.60000610351562)"><text class="st10 st11 st12" transform="matrix(1 0 0 1 -15 16.9999)">Less Stressed and More Exp…</text><g id="node_10_text" class="st13"><text class="st14 st11 st12" transform="matrix(1 0 0 1 -15 16.9999)">Less Stressed and More Expressive</text></g><circle cx="0" cy="32" r="10" class="st15"/><g class="st13"><text class="st16 st11 st12" transform="matrix(1 0 0 1 -5 37.9999)">7</text></g></g><g transform="translate(816.6666870117188,-92.5999984741211)"><text class="st10 st11 st12" transform="matrix(1 0 0 1 -14.9999 17.0001)">Accomplished &amp; Creative</text><g id="node_16_text" class="st13"><text class="st14 st11 st12" transform="matrix(1 0 0 1 -14.9999 17.0001)">Accomplished &amp; Creative</text></g><circle cx="0" cy="32" r="10" class="st15"/><g class="st13"><text class="st16 st11 st12" transform="matrix(1 0 0 1 -4.9999 38.0001)">8</text></g></g><g transform="translate(816.6666870117188,-152.60000610351562)"><text class="st10 st11 st12" transform="matrix(1 0 0 1 -14.9999 16.9999)">Proud</text><g id="node_14_text" class="st13"><text class="st14 st11 st12" transform="matrix(1 0 0 1 -14.9999 16.9999)">Proud</text></g><circle cx="0" cy="32" r="10" class="st15"/><g class="st13"><text class="st16 st11 st12" transform="matrix(1 0 0 1 -4.9999 37.9999)">6</text></g></g><g transform="translate(490,327.3999938964844)"><text class="st10 st11 st12" transform="matrix(1 0 0 1 -15 6.0923)">Gratitude</text><g id="node_37_text" class="st13"><text class="st14 st11 st12" transform="matrix(1 0 0 1 -15 6.0923)">Gratitude</text></g><circle cx="0" cy="32" r="22" class="st15"/><g class="st13"><text class="st16 st11 st12" transform="matrix(1 0 0 1 -11 38)">22</text></g></g><g transform="translate(490,27.399999618530273)"><text class="st10 st11 st12" transform="matrix(1 0 0 1 -15 6.0923)">Meaningful</text><g id="node_23_text" class="st13"><text class="st14 st11 st12" transform="matrix(1 0 0 1 -15 6.0923)">Meaningful</text></g><circle cx="0" cy="32" r="22" class="st15"/><g class="st13"><text class="st16 st11 st12" transform="matrix(1 0 0 1 -11 38)">22</text></g></g><g transform="translate(653.3333129882812,57.400001525878906)"><text class="st10 st11 st12" transform="matrix(1 0 0 1 -15 10.115)">Connected</text><g id="node_27_text" class="st13"><text class="st14 st11 st12" transform="matrix(1 0 0 1 -15 10.115)">Connected</text></g><circle cx="0" cy="32" r="18" class="st15"/><g class="st13"><text class="st16 st11 st12" transform="matrix(1 0 0 1 -11 38)">18</text></g></g><g transform="translate(653.3333129882812,-2.5999999046325684)"><text class="st10 st11 st12" transform="matrix(1 0 0 1 -15 17)">Well Rounded</text><g id="node_22_text" class="st13"><text class="st14 st11 st12" transform="matrix(1 0 0 1 -15 17)">Well Rounded</text></g><circle cx="0" cy="32" r="10" class="st15"/><g class="st13"><text class="st16 st11 st12" transform="matrix(1 0 0 1 -5 38)">4</text></g></g><g transform="translate(816.6666870117188,87.4000015258789)"><text class="st10 st11 st12" transform="matrix(1 0 0 1 -14.9999 15.7582)">Gained Perspective and App…</text><g id="node_28_text" class="st13"><text class="st14 st11 st12" transform="matrix(1 0 0 1 -14.9999 15.7582)">Gained Perspective and Appreciation</text></g><circle cx="0" cy="32" r="11" class="st15"/><g class="st13"><text class="st16 st11 st12" transform="matrix(1 0 0 1 -10.9999 38)">11</text></g></g><g transform="translate(816.6666870117188,27.399999618530273)"><text class="st10 st11 st12" transform="matrix(1 0 0 1 -14.9999 17)">Part of Something Bigger</text><g id="node_26_text" class="st13"><text class="st14 st11 st12" transform="matrix(1 0 0 1 -14.9999 17)">Part of Something Bigger</text></g><circle cx="0" cy="32" r="10" class="st15"/><g class="st13"><text class="st16 st11 st12" transform="matrix(1 0 0 1 -4.9999 38)">7</text></g></g><g transform="translate(653.3333129882812,417.3999938964844)"><text class="st10 st11 st12" transform="matrix(1 0 0 1 -15 15.7582)">Gratified</text><g id="node_41_text" class="st13"><text class="st14 st11 st12" transform="matrix(1 0 0 1 -15 15.7582)">Gratified</text></g><circle cx="0" cy="32" r="11" class="st15"/><g class="st13"><text class="st16 st11 st12" transform="matrix(1 0 0 1 -11 38)">11</text></g></g><g transform="translate(653.3333129882812,237.39999389648438)"><text class="st10 st11 st12" transform="matrix(1 0 0 1 -15 15.7582)">Balanced</text><g id="node_35_text" class="st13"><text class="st14 st11 st12" transform="matrix(1 0 0 1 -15 15.7582)">Balanced</text></g><circle cx="0" cy="32" r="11" class="st15"/><g class="st13"><text class="st16 st11 st12" transform="matrix(1 0 0 1 -11 38)">11</text></g></g><g transform="translate(816.6666870117188,267.3999938964844)"><text class="st10 st11 st12" transform="matrix(1 0 0 1 -14.9999 17)">Refreshed</text><g id="node_36_text" class="st13"><text class="st14 st11 st12" transform="matrix(1 0 0 1 -14.9999 17)">Refreshed</text></g><circle cx="0" cy="32" r="10" class="st15"/><g class="st13"><text class="st16 st11 st12" transform="matrix(1 0 0 1 -4.9999 38)">6</text></g></g><g transform="translate(816.6666870117188,207.39999389648438)"><text class="st10 st11 st12" transform="matrix(1 0 0 1 -14.9999 17)">Culturally Aware</text><g id="node_34_text" class="st13"><text class="st14 st11 st12" transform="matrix(1 0 0 1 -14.9999 17)">Culturally Aware</text></g><circle cx="0" cy="32" r="10" class="st15"/><g class="st13"><text class="st16 st11 st12" transform="matrix(1 0 0 1 -4.9999 38)">5</text></g></g><g transform="translate(816.6666870117188,447.3999938964844)"><text class="st10 st11 st12" transform="matrix(1 0 0 1 -14.9999 17)">Happy</text><g id="node_42_text" class="st13"><text class="st14 st11 st12" transform="matrix(1 0 0 1 -14.9999 17)">Happy</text></g><circle cx="0" cy="32" r="10" class="st15"/><g class="st13"><text class="st16 st11 st12" transform="matrix(1 0 0 1 -4.9999 38)">6</text></g></g><g transform="translate(816.6666870117188,387.3999938964844)"><text class="st10 st11 st12" transform="matrix(1 0 0 1 -14.9999 17)">Grateful</text><g id="node_40_text" class="st13"><text class="st14 st11 st12" transform="matrix(1 0 0 1 -14.9999 17)">Grateful</text></g><circle cx="0" cy="32" r="10" class="st15"/><g class="st13"><text class="st16 st11 st12" transform="matrix(1 0 0 1 -4.9999 38)">5</text></g></g><g transform="translate(326.6666564941406,357.3999938964844)"><text class="st10 st11 st12" transform="matrix(1 0 0 1 -15 17)">Wishful</text><g id="node_50_text" class="st13"><text class="st14 st11 st12" transform="matrix(1 0 0 1 -15 17)">Wishful</text></g><circle cx="0" cy="32" r="10" class="st15"/><g class="st13"><text class="st16 st11 st12" transform="matrix(1 0 0 1 -5 38)">8</text></g></g><g transform="translate(326.6666564941406,297.3999938964844)"><text class="st10 st11 st12" transform="matrix(1 0 0 1 -15 17)">Regretful</text><g id="node_48_text" class="st13"><text class="st14 st11 st12" transform="matrix(1 0 0 1 -15 17)">Regretful</text></g><circle cx="0" cy="32" r="10" class="st15"/><g class="st13"><text class="st16 st11 st12" transform="matrix(1 0 0 1 -11 38)">10</text></g></g></g></g></g></svg>